HIERARCHY
ROOT Hips
{
 OFFSET 0.000000 0.000000 0.000000
 CHANNELS 6 Xposition Yposition Zposition Yrotation Xrotation Zrotation
 JOINT Chest
 {
  OFFSET 0.000000 9.585900 0.002600
  CHANNELS 3 Yrotation Xrotation Zrotation
  JOINT Chest2
  {
   OFFSET 0.000000 9.601200 -0.005300
   CHANNELS 3 Yrotation Xrotation Zrotation
   JOINT Chest3
   {
    OFFSET 0.000000 9.561800 0.000000
    CHANNELS 3 Yrotation Xrotation Zrotation
    JOINT Chest4
    {
     OFFSET 0.000000 9.552100 0.000000
     CHANNELS 3 Yrotation Xrotation Zrotation
     JOINT Neck
     {
      OFFSET 0.000000 14.453000 0.000000
      CHANNELS 3 Yrotation Xrotation Zrotation
      JOINT Head
      {
       OFFSET 0.000000 8.936500 -0.011300
       CHANNELS 3 Yrotation Xrotation Zrotation
       End Site
       {
        OFFSET 0.000000 17.073600 -0.006000
       }
      }
     }
     JOINT RightCollar
     {
      OFFSET -2.921100 9.558500 0.000000
      CHANNELS 3 Yrotation Xrotation Zrotation
      JOINT RightShoulder
      {
       OFFSET -13.519700 0.000000 0.000000
       CHANNELS 3 Yrotation Xrotation Zrotation
       JOINT RightElbow
       {
        OFFSET 0.000000 -29.696600 0.000000
        CHANNELS 3 Yrotation Xrotation Zrotation
        JOINT RightWrist
        {
         OFFSET 0.000000 -24.004700 0.000000
         CHANNELS 3 Yrotation Xrotation Zrotation
         End Site
         {
          OFFSET 0.000000 -17.728500 0.000000
         }
        }
       }
      }
     }
     JOINT LeftCollar
     {
      OFFSET 2.921100 9.558500 0.000000
      CHANNELS 3 Yrotation Xrotation Zrotation
      JOINT LeftShoulder
      {
       OFFSET 13.519700 0.000000 0.000000
       CHANNELS 3 Yrotation Xrotation Zrotation
       JOINT LeftElbow
       {
        OFFSET 0.000000 -29.696600 0.000000
        CHANNELS 3 Yrotation Xrotation Zrotation
        JOINT LeftWrist
        {
         OFFSET 0.000000 -24.004700 0.000000
         CHANNELS 3 Yrotation Xrotation Zrotation
         End Site
         {
          OFFSET 0.000000 -17.728500 0.000000
         }
        }
       }
      }
     }
    }
   }
  }
 }
 JOINT RightHip
 {
  OFFSET -7.771700 -0.012900 -0.001300
  CHANNELS 3 Yrotation Xrotation Zrotation
  JOINT RightKnee
  {
   OFFSET 0.000000 -40.869800 0.001200
   CHANNELS 3 Yrotation Xrotation Zrotation
   JOINT RightAnkle
   {
    OFFSET 0.000000 -39.717900 0.002100
    CHANNELS 3 Yrotation Xrotation Zrotation
    JOINT RightToe
    {
     OFFSET 0.000000 -4.965400 11.033500
     CHANNELS 3 Yrotation Xrotation Zrotation
     End Site
     {
      OFFSET 0.000000 -1.423100 5.872300
     }
    }
   }
  }
 }
 JOINT LeftHip
 {
  OFFSET 7.771700 -0.012900 -0.001300
  CHANNELS 3 Yrotation Xrotation Zrotation
  JOINT LeftKnee
  {
   OFFSET 0.000000 -40.869800 0.001200
   CHANNELS 3 Yrotation Xrotation Zrotation
   JOINT LeftAnkle
   {
    OFFSET 0.000000 -39.717900 0.002100
    CHANNELS 3 Yrotation Xrotation Zrotation
    JOINT LeftToe
    {
     OFFSET 0.000000 -4.965400 11.033500
     CHANNELS 3 Yrotation Xrotation Zrotation
     End Site
     {
      OFFSET 0.000000 -1.423100 5.872300
     }
    }
   }
  }
 }
}
MOTION
Frames: 15
Frame Time: 0.008333
0.000000 85.388000 0.000000 0.000000 -5.767877 0.000000 0.000000 11.653817 0.000000 0.000000 -5.885947 0.000000 0.000000 -0.000000 0.000000 0.000000 -0.000000 0.000000 0.000000 12.528835 0.000000 0.000000 0.711642 0.000000 0.000000 -0.000000 0.000000 0.000000 0.000000 -90.000000 0.000000 -2.309062 0.000000 0.000000 2.309062 0.000000 0.000000 -0.000000 0.000000 0.000000 -0.000000 90.000000 0.000000 -2.309062 0.000000 0.000000 2.309062 0.000000 0.000000 8.520406 0.000000 0.000000 1.905762 0.000000 -0.000000 -4.658285 0.000000 0.000000 -0.000000 0.000000 0.000000 8.520406 0.000000 0.000000 1.905762 0.000000 -0.000000 -4.658285 0.000000 0.000000 -0.000000 0.000000
-25.566048 57.697182 12.688136 176.701020 -40.189240 -2.129837 3.144790 23.235876 3.453596 1.722253 13.259348 1.843856 2.237094 16.564445 2.385533 1.722280 13.259338 1.843847 3.712956 16.249337 7.930756 4.097649 -5.612686 13.413510 9.226284 -0.692675 1.197328 8.055104 -50.495940 -3.377750 -59.964642 -11.413692 29.869868 -16.163904 -13.256737 -9.513856 -17.688203 -1.386379 -2.992272 -22.441616 -49.492399 10.618273 56.459917 -12.135020 -18.945206 23.001365 -14.814876 -1.163024 4.956971 -31.745056 -4.090754 -37.450536 75.186650 -41.398173 4.708287 -16.053759 11.155286 -0.157344 0.103839 0.065735 -7.172898 -29.922372 5.429057 98.490411 83.288828 98.816385 1.663420 -17.526351 -18.106626 0.048802 -0.639558 -0.118821
-25.558804 57.687132 12.682996 176.600726 -40.050068 -2.095979 3.287957 23.251033 3.546607 1.755341 13.271317 1.855575 2.279228 16.579066 2.401544 1.755320 13.271259 1.855561 3.668543 16.244943 7.989638 3.994542 -5.615010 13.538622 8.985683 -0.599592 1.251614 8.101779 -50.175843 -3.383691 -60.061764 -11.974662 31.117885 -15.451252 -13.078758 -9.288476 -17.683688 -1.298189 -2.960677 -21.724788 -49.586853 10.210940 56.104183 -12.028596 -19.698030 22.815512 -14.765186 -1.285702 5.052085 -31.887196 -4.056973 -37.907208 75.091580 -41.841797 4.788540 -16.068816 11.123349 -0.137178 0.106638 0.093016 -7.407168 -30.081915 5.538491 99.568064 83.389433 99.746448 1.831778 -17.455253 -18.095566 -0.000276 -0.619941 -0.160344
-25.564859 57.682085 12.666812 176.623357 -39.953846 -2.059210 3.310325 23.301348 3.552717 1.788656 13.280639 1.867397 2.321697 16.590385 2.417725 1.788645 13.280534 1.867390 3.627543 16.260195 8.052276 3.898088 -5.580933 13.668812 8.725178 -0.476330 1.329163 8.016387 -49.865789 -3.354214 -60.059092 -12.450010 32.346849 -14.598291 -12.910362 -9.361807 -17.696160 -1.206908 -2.910348 -20.946979 -49.664770 9.799123 55.757635 -11.863135 -20.478196 22.625790 -14.688323 -1.184008 5.072557 -31.978153 -4.115606 -38.460943 75.009081 -42.404490 4.939682 -16.124666 11.116252 -0.182036 0.108234 0.078854 -7.517069 -30.194238 5.502210 99.792097 83.360198 99.932954 1.761479 -17.353240 -18.070937 0.035453 -0.620403 -0.160407
-25.577611 57.674828 12.649519 176.659902 -39.839613 -1.991649 3.309967 23.320709 3.516635 1.820753 13.288685 1.880538 2.362673 16.600226 2.435551 1.820730 13.288577 1.880553 3.589517 16.292780 8.116173 3.808157 -5.514790 13.799832 8.446514 -0.341809 1.430920 7.727637 -49.583046 -3.257865 -59.871580 -12.755719 33.453669 -13.702721 -12.816129 -9.601635 -17.728875 -1.119237 -2.838531 -20.276780 -49.705997 9.471237 55.543662 -11.672694 -21.268410 22.513468 -14.687777 -0.935445 5.098793 -32.083949 -4.219612 -38.928236 74.970985 -42.901011 5.015909 -16.193979 11.103670 -0.199957 0.107119 0.083810 -7.577623 -30.325550 5.407352 99.477738 83.199451 99.594171 1.610859 -17.252409 -18.046734 0.069864 -0.585355 -0.155529
-25.593543 57.668175 12.628694 176.683158 -39.738559 -1.893984 3.313948 23.341467 3.461004 1.848597 13.295567 1.895415 2.398307 16.608678 2.455382 1.848541 13.295526 1.895457 3.556161 16.341273 8.176872 3.729484 -5.419613 13.922725 8.159715 -0.213447 1.548348 7.153351 -49.348713 -3.032908 -59.405523 -12.871605 34.374019 -12.896991 -12.845183 -9.975968 -17.777744 -1.042067 -2.752307 -19.813948 -49.705698 9.279333 55.535473 -11.480522 -22.047707 22.474673 -14.727738 -0.614305 5.043756 -32.191111 -4.245944 -39.298471 74.949333 -43.415501 4.968258 -16.238241 11.084957 -0.136010 0.100356 0.150557 -7.477137 -30.431668 5.168564 98.633873 82.937280 98.845208 1.509353 -17.181837 -18.047249 0.061298 -0.493777 -0.162391
-25.601175 57.662932 12.605061 176.746957 -39.658306 -1.865940 3.306277 23.374020 3.458873 1.869359 13.301085 1.912052 2.425107 16.615387 2.477184 1.869331 13.301078 1.912078 3.529627 16.404471 8.228804 3.667875 -5.298118 14.026355 7.873933 -0.104639 1.665365 6.243094 -49.183873 -2.605978 -58.566194 -12.856463 35.074662 -12.344236 -13.003378 -10.519661 -17.836497 -0.986794 -2.662605 -19.581146 -49.666959 9.227830 55.756732 -11.296120 -22.800951 22.452832 -14.766836 -0.259179 4.924438 -32.284716 -4.218926 -39.542407 74.942279 -43.801051 4.925599 -16.232042 11.071324 -0.091855 0.053324 0.192812 -7.441590 -30.520284 5.035447 98.154823 82.747820 98.443874 1.359944 -17.111058 -18.059639 0.122950 -0.450857 -0.130156
-25.595384 57.647927 12.593163 176.702899 -39.498336 -1.844241 3.371018 23.265287 3.495558 1.913862 13.357998 1.960326 2.441058 16.620774 2.500659 1.881418 13.305530 1.930286 3.511837 16.480000 8.266284 3.628469 -5.155030 14.099566 7.601304 -0.023870 1.768361 5.073105 -49.099715 -1.978487 -57.347038 -12.803685 35.538485 -12.158004 -13.246338 -11.239487 -17.899844 -0.960717 -2.581760 -19.562977 -49.598651 9.304772 56.184335 -11.127502 -23.513531 22.430562 -14.809250 0.100873 4.857917 -32.472992 -4.126615 -39.699793 74.936943 -44.069059 4.863027 -16.213808 11.040607 -0.039109 0.018194 0.212118 -7.369359 -30.690839 4.984375 97.938560 82.612385 98.313345 1.379641 -17.076453 -18.073243 0.093828 -0.366711 -0.130839
-25.599541 57.634172 12.577727 176.722222 -39.362097 -1.789486 3.388843 23.263343 3.510876 1.896692 13.334977 1.964270 2.444122 16.624793 2.524219 1.883227 13.308876 1.948949 3.505875 16.565578 8.284824 3.618264 -4.995195 14.133053 7.356528 0.028116 1.844836 3.863697 -49.091444 -1.271831 -55.915806 -12.755935 35.784496 -12.318786 -13.506772 -12.073731 -17.957112 -0.960268 -2.520948 -19.734680 -49.512708 9.496450 56.761108 -10.984351 -24.163146 22.425423 -14.865027 0.429935 4.793528 -32.636905 -4.109095 -40.083036 74.905540 -44.581168 4.851892 -16.194475 11.041885 0.016748 -0.028872 0.224473 -7.285065 -30.844994 4.829213 97.818934 82.531087 98.280669 1.437981 -17.066693 -18.085369 0.067275 -0.277341 -0.119085
-25.588102 57.623623 12.559921 176.675583 -39.261522 -1.770242 3.459420 23.290127 3.599886 1.873809 13.310855 1.966777 2.432932 16.627244 2.546382 1.873787 13.310903 1.966837 3.515066 16.660588 8.281820 3.644347 -4.820296 14.121067 7.152372 0.059482 1.883671 2.894054 -49.144892 -0.682260 -54.563891 -12.689992 35.873818 -12.681321 -13.722670 -12.924767 -17.995927 -0.978523 -2.488844 -20.059069 -49.415695 9.781295 57.417085 -10.877690 -24.726309 22.458859 -14.945997 0.691453 4.740982 -32.777242 -3.990285 -40.545337 74.840880 -45.155281 4.876359 -16.143433 11.036487 0.042809 -0.085991 0.232244 -7.186893 -30.950604 4.766712 97.920462 82.481790 98.499060 1.499393 -17.066258 -18.119390 0.037970 -0.218023 -0.110370
-25.574834 57.618722 12.536321 176.624787 -39.215453 -1.742791 3.502100 23.293579 3.631003 1.846908 13.357255 2.011157 2.408133 16.628193 2.565912 1.853609 13.311586 1.982972 3.540886 16.765494 8.257971 3.709152 -4.629417 14.064492 6.997496 0.080620 1.883853 2.389367 -49.244941 -0.382773 -53.545343 -12.575727 35.866552 -13.088090 -13.853418 -13.699260 -18.010477 -1.006986 -2.490847 -20.470741 -49.310864 10.123161 58.080627 -10.815548 -25.196559 22.538396 -15.051772 0.874996 4.706208 -32.863334 -3.866694 -41.046071 74.793233 -45.788873 4.910528 -16.107965 11.079488 0.040088 -0.148145 0.212918 -7.108889 -30.997940 4.731814 98.214862 82.500737 98.876240 1.552300 -17.064758 -18.141548 0.043298 -0.190406 -0.096481
-25.557999 57.613218 12.515995 176.571893 -39.157459 -1.725390 3.511356 23.348518 3.692065 1.820597 13.332687 2.010256 2.374555 16.627834 2.581688 1.826549 13.311154 1.996345 3.581416 16.879083 8.218650 3.806867 -4.424360 13.974094 6.888322 0.089780 1.858063 2.453797 -49.368867 -0.456848 -52.982828 -12.413635 35.798181 -13.437985 -13.893079 -14.334691 -18.007473 -1.037034 -2.518433 -20.883276 -49.205869 10.473901 58.683977 -10.792525 -25.587732 22.654560 -15.183538 1.003560 4.676758 -32.958418 -3.741792 -41.295669 74.796575 -46.146190 4.858239 -16.073097 11.095282 0.073060 -0.194375 0.204354 -6.946987 -31.053168 4.666313 98.174157 82.495891 99.006815 1.558070 -17.056956 -18.177393 0.074739 -0.155619 -0.076169
-25.549535 57.602500 12.504578 176.538113 -39.038945 -1.668269 3.458636 23.336311 3.674699 1.799698 13.310146 2.006540 2.341106 16.626608 2.593523 1.799726 13.310105 2.006550 3.632005 16.998026 8.172009 3.925739 -4.210465 13.866885 6.815254 0.074755 1.826219 3.055075 -49.485584 -0.896633 -52.871217 -12.226671 35.688795 -13.694678 -13.854561 -14.802358 -18.001912 -1.063562 -2.550617 -21.212193 -49.110196 10.780909 59.168491 -10.796905 -25.920748 22.779715 -15.340394 1.115835 4.689022 -33.099651 -3.716728 -41.383704 74.828121 -46.323744 4.803513 -16.074280 11.066773 0.066412 -0.192593 0.192983 -6.807766 -31.183589 4.589516 97.985992 82.472660 98.924142 1.513482 -16.987175 -18.155818 0.083706 -0.183863 -0.089811
-25.541180 57.595929 12.492262 176.500549 -38.942874 -1.610291 3.411633 23.317020 3.636470 1.777789 13.308362 2.013627 2.313820 16.624400 2.601675 1.817455 13.283319 1.968455 3.666690 17.140066 8.182527 4.056629 -3.991318 13.755615 6.735733 0.045064 1.858288 4.058908 -49.561889 -1.623749 -53.110350 -12.042675 35.552892 -13.877845 -13.772131 -15.096687 -18.042281 -1.041190 -2.528966 -21.389331 -49.032312 10.996036 59.471715 -10.812803 -26.147452 22.911442 -15.503010 1.178498 4.730937 -33.200868 -3.736778 -41.291465 74.883732 -46.289285 4.784101 -16.109534 11.078660 0.025059 -0.178694 0.165557 -6.745892 -31.289251 4.553638 97.901113 82.455787 98.874632 1.476675 -16.904855 -18.144032 0.103437 -0.168552 -0.071434
-25.530339 57.592166 12.481533 176.486750 -38.852674 -1.592447 3.353309 23.296949 3.614008 1.761159 13.305766 2.017673 2.293057 16.621248 2.606245 1.838420 13.260526 1.943912 3.703524 17.279493 8.175826 4.196444 -3.770384 13.644385 6.692711 -0.014530 1.883445 5.271306 -49.581525 -2.501452 -53.540307 -11.889235 35.395386 -14.024271 -13.709979 -15.228224 -18.084653 -1.013962 -2.508052 -21.392330 -48.979135 11.099875 59.629923 -10.864086 -26.430116 22.963755 -15.679564 1.361625 4.713549 -33.297556 -3.683730 -41.216281 74.921816 -46.299492 4.719477 -16.107914 11.086539 0.033827 -0.192963 0.159036 -6.699607 -31.385191 4.561047 97.922316 82.495440 98.944521 1.422400 -16.884725 -18.157534 0.182472 -0.114057 -0.014467
